<svg width="20" height="20" viewBox="0 0 19 17" fill="none" xmlns="http://www.w3.org/2000/svg">
<path fill-rule="evenodd" clip-rule="evenodd" d="M17.0867 0.886396C17.2489 0.818807 17.4229 0.784388 17.5986 0.785169C17.7743 0.785951 17.948 0.821918 18.1096 0.890947C18.2711 0.959977 18.4172 1.06067 18.5392 1.18708C18.6612 1.3135 18.7566 1.46307 18.8199 1.62697C18.906 1.84554 18.933 2.0834 18.897 2.31611L16.9427 15.0884C16.9079 15.3137 16.8159 15.5264 16.6754 15.706C16.5349 15.8857 16.3508 16.0263 16.1404 16.1144C15.9303 16.2014 15.7012 16.2326 15.4755 16.2049C15.2497 16.1772 15.035 16.0915 14.8522 15.9563C12.9308 14.5335 11.0095 13.1107 9.08831 11.6877C8.93097 11.5717 8.8165 11.4068 8.76276 11.2189C8.70903 11.0309 8.71907 10.8305 8.79131 10.6488C8.83871 10.5281 8.91201 10.4193 9.00602 10.33L14.3842 5.2244C14.4142 5.19613 14.4357 5.16002 14.4463 5.12016C14.4569 5.08029 14.4562 5.03826 14.4441 4.9988C14.4321 4.95935 14.4093 4.92404 14.3782 4.89689C14.3472 4.86973 14.3092 4.85179 14.2684 4.84511C14.2142 4.83631 14.1587 4.84825 14.1129 4.87854L7.00288 9.53925C6.69828 9.73897 6.35559 9.87339 5.99643 9.93402C5.63727 9.99466 5.26945 9.98019 4.91616 9.89154L1.58102 9.05325C1.40048 9.00804 1.23891 8.90679 1.11948 8.76403C1.00006 8.62128 0.928934 8.44437 0.916306 8.25868C0.903111 8.07322 0.94835 7.88829 1.04567 7.72986C1.14298 7.57143 1.28749 7.44747 1.45888 7.3754L17.0867 0.886396Z" fill="white"/>
</svg>
