<svg width="111" height="25" viewBox="0 0 111 25" fill="none" xmlns="http://www.w3.org/2000/svg">
<path fill-rule="evenodd" clip-rule="evenodd" d="M10.9324 4.26892C11.0241 4.35481 11.0111 4.50524 10.8959 4.6929C10.7977 4.85298 10.7174 5.05206 10.7174 5.13544C10.7174 5.25175 12.4898 8.39577 13.4769 10.0308C13.6411 10.3024 13.5143 10.4764 14.8274 8.17754C16.5666 5.13232 16.4958 5.32667 16.0437 4.8463C15.7049 4.4864 15.6873 4.4189 15.8874 4.24978C16.0227 4.13555 16.5575 4.05203 17.2224 4.04149C18.1634 4.02636 18.3566 4.06597 18.4963 4.30244C18.6266 4.52289 18.6154 4.59662 18.4423 4.65582C17.9236 4.83324 16.809 6.2779 15.4145 8.58046L13.9168 11.053L13.9569 13.5411L13.9969 16.0292L14.4341 16.2572C14.6746 16.3826 14.9145 16.5459 14.9671 16.6201C15.2394 17.0034 14.8647 17.0786 12.6833 17.0786C10.6056 17.0786 10.4257 17.0573 10.4259 16.8113C10.4259 16.6472 10.596 16.4836 10.8662 16.3878C11.1084 16.3019 11.3708 16.1095 11.4492 15.9602C11.5276 15.811 11.5919 14.7113 11.5919 13.5163V11.3438L9.73354 8.22635C8.47044 6.10759 7.74968 5.04227 7.48353 4.90104C6.95518 4.62081 6.88244 4.46192 7.15559 4.18391C7.35061 3.98541 7.64751 3.96376 9.08814 4.04253C10.0243 4.09386 10.8542 4.19563 10.9324 4.26892ZM53.3655 4.29444C53.412 4.44338 53.4276 4.5769 53.4002 4.59114C53.3729 4.60538 53.1537 4.71991 52.9132 4.84556L52.4759 5.07402V9.37029C52.4759 13.5289 52.4863 13.6864 52.8005 14.2846C53.4309 15.4845 54.8469 16.0386 56.3865 15.6878C57.3572 15.4668 57.841 15.1068 58.2737 14.283C58.5824 13.6953 58.5996 13.474 58.6425 9.53837C58.6753 6.53514 58.6409 5.35292 58.5163 5.20012C58.4221 5.08455 58.0902 4.92033 57.779 4.83503C57.3657 4.72169 57.2129 4.60137 57.2129 4.38878C57.2129 4.12205 57.3281 4.09564 58.5976 4.07131C59.3592 4.05678 60.1299 4.04016 60.3102 4.03423C60.539 4.02696 60.6517 4.12012 60.6829 4.34324C60.718 4.59425 60.6172 4.69988 60.2112 4.83621C59.9272 4.9316 59.6447 5.08826 59.5835 5.18425C59.5223 5.28023 59.4383 7.26147 59.3971 9.58688C59.3261 13.5869 59.3041 13.855 58.9892 14.5567C58.5532 15.5288 57.6417 16.4602 56.7172 16.8782C55.6368 17.3669 53.5106 17.3705 52.4759 16.8852C51.0436 16.2136 50.2912 15.1308 50.0742 13.4287C49.9972 12.8253 49.9322 10.7114 49.9298 8.73149L49.9252 5.13158L49.4151 4.88398C48.8563 4.61265 48.8089 4.51355 49.0975 4.21967C49.2384 4.07636 49.8261 4.02369 51.2856 4.02369C53.0894 4.02369 53.2892 4.04965 53.3655 4.29444ZM74.5577 6.32314C74.718 6.48633 74.8492 6.78185 74.8492 6.9799C74.8492 7.41116 74.2286 7.95501 73.7364 7.95501C72.9688 7.95501 72.5262 6.88659 73.0499 6.29778C73.3762 5.93075 74.1854 5.94425 74.5577 6.32314ZM22.2142 9.77974C22.7508 10.1413 23.3159 11.0535 23.4244 11.7332C23.4784 12.0727 22.7549 12.5217 20.7536 13.3909C20.0608 13.6918 19.345 14.0523 19.163 14.192L18.832 14.4461L19.1108 14.931C19.567 15.7238 20.0921 16.032 20.9648 16.0193C21.8323 16.0065 22.4092 15.7478 23.0139 15.1004C23.4266 14.6584 23.8353 14.617 23.8353 15.0172C23.8353 15.3886 22.8049 16.3943 22.0279 16.7812C19.2941 18.1425 16.4852 16.5262 16.4887 13.5937C16.4908 11.8727 17.6458 10.0616 19.0875 9.51909C19.9987 9.17595 21.5041 9.3016 22.2142 9.77974ZM30.0358 9.56908C30.3598 9.71877 30.8008 10.0542 31.0158 10.3143C31.4907 10.8887 31.8218 11.9019 31.6066 12.121C31.5248 12.2043 30.5136 12.6996 29.3593 13.2218C26.979 14.2988 26.87 14.4316 27.6521 15.2983C28.5342 16.2758 30.1648 16.2415 31.1964 15.2237C31.5021 14.9221 31.7727 14.7736 31.915 14.829C32.2438 14.9575 32.2031 15.0996 31.649 15.7586C29.6102 18.1828 25.7442 17.5833 24.9252 14.7158C24.6056 13.5967 24.7102 12.7662 25.3286 11.5155C25.6927 10.7787 25.9723 10.4374 26.5132 10.0689C27.7082 9.25457 28.9689 9.07566 30.0358 9.56908ZM48.1456 9.41613C48.2905 9.50974 48.2151 9.77336 47.8173 10.5636C47.5334 11.128 46.6867 12.8914 45.9361 14.4825C43.7238 19.1709 42.7356 20.4166 41.2287 20.4166C40.3722 20.4166 39.8682 20.0015 39.8682 19.2962C39.8682 18.5849 40.144 18.4358 41.2393 18.5552C41.9567 18.6334 42.2782 18.603 42.6174 18.4243C43.1547 18.1416 43.8036 17.3086 43.8036 16.9017C43.8036 16.6412 42.7553 14.107 41.4671 11.2538C41.2364 10.7427 40.9299 10.2819 40.7859 10.2298C40.3988 10.0898 40.0094 9.71432 40.0989 9.567C40.1418 9.49639 40.9601 9.43853 41.9174 9.43853C43.3356 9.43853 43.6578 9.47814 43.6578 9.65231C43.6578 9.76995 43.5922 9.90732 43.5121 9.95776C43.2745 10.1072 43.3427 10.5351 43.7514 11.46C43.9633 11.9393 44.3532 12.8632 44.6182 13.5132L45.0998 14.6949L45.6662 13.439C45.9776 12.7483 46.4798 11.5322 46.7822 10.7366C47.2418 9.52725 47.383 9.29063 47.6446 9.29241C47.8168 9.29374 48.0422 9.34937 48.1456 9.41613ZM64.0357 9.92067C64.0813 10.4803 64.258 10.6513 64.4004 10.2738C64.4425 10.1619 64.8231 9.89486 65.2462 9.68035C66.1837 9.20488 67.3449 9.16141 68.2174 9.56923C69.4924 10.1652 69.7329 10.8379 69.7414 13.8346C69.7476 16.035 69.7544 16.0816 70.0757 16.1693C70.256 16.2184 70.584 16.2596 70.8045 16.2606C71.2001 16.2627 71.3065 16.4646 71.0922 16.8075C71.0195 16.9238 70.2719 16.9975 68.8365 17.03C67.0443 17.0706 66.676 17.0423 66.6071 16.8589C66.5618 16.7382 66.5775 16.6202 66.6422 16.5969C66.7069 16.5738 66.9238 16.4706 67.1242 16.3674C67.4877 16.1805 67.4888 16.1746 67.5287 13.7625L67.5688 11.3449L67.0696 10.8367C66.4626 10.219 65.8076 10.1629 65.0688 10.6654C64.295 11.1915 64.0638 11.8172 64.0637 13.3862C64.0635 14.1296 64.1061 15.0551 64.1584 15.4431C64.2427 16.0687 64.3096 16.1722 64.7515 16.3602C65.7059 16.7661 65.2605 16.9278 63.0676 16.9714C61.3357 17.006 61.0025 16.9776 61.0025 16.796C61.0025 16.6769 61.1333 16.5372 61.2932 16.4855C61.995 16.2589 62.0228 16.1262 62.0228 13.0043C62.0228 9.85881 62.0287 9.88359 61.2821 9.88359C61.0079 9.88359 60.9033 9.58911 61.1046 9.38409C61.1608 9.32697 61.8331 9.29908 62.5986 9.32222L63.9905 9.36436L64.0357 9.92067ZM74.883 12.7394L74.9221 16.1885L75.4322 16.1636C75.7128 16.1498 76.2025 16.1164 76.5205 16.0894C76.966 16.0515 77.11 16.0964 77.1479 16.2853C77.2199 16.6432 76.0509 16.9844 74.6018 17.0284C72.7624 17.0841 72.8229 17.2047 72.775 13.3866L72.7358 10.2545L72.2985 10.206C71.3353 10.0991 71.496 9.60498 72.5506 9.43037C72.893 9.3737 73.5489 9.31896 74.0085 9.30872L74.8438 9.29018L74.883 12.7394ZM82.6354 9.57695C82.7843 9.7029 82.8528 9.68672 82.9194 9.50989C82.99 9.32267 83.2089 9.28558 84.0375 9.32074L85.068 9.36436L85.0563 14.3521C85.0494 17.409 85.1023 19.4935 85.1933 19.7373C85.2815 19.9731 85.5198 20.1979 85.7799 20.2902C86.0208 20.3756 86.218 20.5392 86.218 20.6536C86.218 20.8186 85.9062 20.8616 84.708 20.8616C83.8773 20.8616 82.8935 20.904 82.5217 20.956C81.9234 21.0395 81.8454 21.018 81.8458 20.7705C81.846 20.5992 82.0579 20.3758 82.3924 20.194L82.9385 19.8973L82.9795 17.9864L83.0205 16.0756L82.5077 16.5338C80.8375 18.0265 78.2138 17.066 77.5426 14.7164C76.9664 12.6989 77.8785 10.3981 79.5862 9.56181C80.0568 9.33142 80.3878 9.28944 81.3042 9.34388C81.9283 9.38082 82.5274 9.48586 82.6354 9.57695ZM89.3398 9.38023C89.5376 9.45752 89.5724 9.85332 89.5849 12.1618C89.5929 13.6422 89.6437 15.0142 89.6976 15.2109C89.7517 15.4075 89.9688 15.6997 90.1802 15.8604C90.6892 16.2471 91.5016 16.1001 92.0737 15.5177L92.4927 15.0913L92.4526 12.6821L92.4126 10.273L91.9389 10.1482C91.4303 10.0143 91.3022 9.65379 91.7202 9.53333C92.2314 9.38602 94.0728 9.26511 94.3657 9.35961C94.6561 9.45351 94.6677 9.57027 94.7054 12.8226L94.7446 16.1885L95.109 16.167C95.3094 16.1552 95.7097 16.098 95.9984 16.0399C96.669 15.905 96.8935 16.2833 96.3556 16.642C95.9736 16.8969 93.0797 17.1996 92.8747 17.0061C92.8083 16.9433 92.7178 16.6171 92.6734 16.281L92.5928 15.6699L91.9926 16.3221C91.0653 17.3292 89.8557 17.5655 88.6903 16.9674C87.6282 16.4223 87.4759 15.9412 87.3864 12.8506L87.3112 10.2545L86.9017 10.2067C86.4993 10.1597 86.2292 9.82276 86.4299 9.61833C86.6209 9.42414 88.9615 9.23247 89.3398 9.38023ZM102.038 9.56908C102.362 9.71877 102.803 10.0542 103.018 10.3143C103.472 10.8626 103.824 11.9035 103.624 12.1046C103.55 12.1784 102.54 12.6742 101.378 13.2062C100.217 13.7382 99.2407 14.254 99.2083 14.3525C99.0859 14.7264 99.6761 15.5184 100.31 15.8307C101.233 16.2857 102.347 16.0194 103.296 15.117C103.683 14.7485 104 14.7621 104 15.1471C104 15.5545 102.696 16.6836 101.849 17.0095C100.403 17.5657 98.666 17.211 97.7128 16.1651C96.9974 15.3802 96.7885 14.7939 96.7963 13.5924C96.8024 12.6446 96.8713 12.3446 97.2624 11.568C98.0066 10.0899 99.1785 9.32297 100.721 9.30517C101.133 9.30042 101.705 9.41465 102.038 9.56908ZM39.7224 9.567C39.7224 9.63762 38.7436 11.1898 37.5472 13.0162C35.0847 16.7753 35.1013 16.6784 36.9531 16.4809C37.8521 16.3851 37.934 16.3428 38.5569 15.6537C39.6206 14.4767 40.0463 14.7739 39.4199 16.256C39.1878 16.8051 39.0265 16.9892 38.7275 17.0465C38.5131 17.0874 37.1572 17.0935 35.7142 17.0601C34.2712 17.0266 33.0087 17.0003 32.9084 17.0018C32.6209 17.006 32.6952 16.5553 33.0648 16.0541C33.6174 15.3052 36.8074 10.2377 36.8074 10.1091C36.8074 9.91355 35.1401 10.1296 34.6471 10.389C34.395 10.5218 34.0876 10.8295 33.9639 11.0729C33.8403 11.3164 33.6333 11.5155 33.5041 11.5155C33.3055 11.5155 33.2835 11.3911 33.3619 10.7121C33.5212 9.33276 33.246 9.43853 36.6772 9.43853C38.3521 9.43853 39.7224 9.49639 39.7224 9.567ZM19.4699 10.2985C19.2083 10.5647 19.0034 10.9927 18.898 11.4926C18.6877 12.4907 18.6865 13.444 18.8956 13.444C19.1994 13.444 20.8125 12.4925 21.2312 12.0663C21.7801 11.5076 21.8297 10.4743 21.3249 10.1146C20.7903 9.73331 19.9426 9.81742 19.4699 10.2985ZM27.7731 10.3033C27.5464 10.5341 27.2895 10.9847 27.2022 11.3046C27.0335 11.923 26.9821 13.444 27.1299 13.444C27.4212 13.444 29.2959 12.2922 29.5965 11.9286C30.077 11.3474 30.0952 10.4441 29.6329 10.1146C29.0958 9.73153 28.2506 9.81727 27.7731 10.3033ZM99.9762 10.0552C99.8072 10.1386 99.5627 10.4338 99.4325 10.7114C99.1111 11.3975 98.8426 13.1497 99.0298 13.3402C99.2355 13.5495 100.682 12.7978 101.387 12.1157C101.849 11.668 101.959 11.4572 101.959 11.0192C101.959 10.291 101.548 9.88047 100.83 9.89367C100.529 9.89916 100.145 9.97186 99.9762 10.0552ZM80.6645 10.3691C79.9461 10.8584 79.6423 11.8307 79.7006 13.4544C79.7386 14.512 79.8115 14.839 80.1344 15.3998C80.7951 16.5471 81.7206 16.6676 82.5962 15.72C82.921 15.3684 82.9409 15.2293 82.9849 12.9975C83.0285 10.7838 83.0135 10.6274 82.7298 10.3387C82.3081 9.90955 81.3182 9.92409 80.6645 10.3691Z" fill="black"/>
</svg>
